<svg width="20" height="20" viewBox="0 0 20 20" fill="none" xmlns="http://www.w3.org/2000/svg">
<path d="M12.5 6.66667L10 4.16667L12.5 1.66667L15 4.16667L12.5 6.66667ZM16.6667 9.16667L15 7.5L16.6667 5.83333L18.3333 7.5L16.6667 9.16667ZM10.0625 18.3333C8.89584 18.3333 7.80209 18.1111 6.78126 17.6667C5.76043 17.2222 4.87154 16.6215 4.11459 15.8646C3.35765 15.1076 2.75695 14.2188 2.31251 13.1979C1.86807 12.1771 1.64584 11.0833 1.64584 9.91667C1.64584 7.88889 2.29168 6.1007 3.58334 4.55208C4.87501 3.00347 6.52084 2.04167 8.52084 1.66667C8.27084 3.04167 8.34723 4.38542 8.75001 5.69792C9.15279 7.01042 9.84723 8.15972 10.8333 9.14583C11.8195 10.1319 12.9688 10.8264 14.2813 11.2292C15.5938 11.6319 16.9375 11.7083 18.3125 11.4583C17.9514 13.4583 16.9931 15.1042 15.4375 16.3958C13.882 17.6875 12.0903 18.3333 10.0625 18.3333ZM10.0625 16.6667C11.2847 16.6667 12.4167 16.3611 13.4583 15.75C14.5 15.1389 15.3195 14.2986 15.9167 13.2292C14.7222 13.1181 13.5903 12.816 12.5208 12.3229C11.4514 11.8299 10.4931 11.1597 9.64584 10.3125C8.79862 9.46528 8.12501 8.50695 7.62501 7.4375C7.12501 6.36806 6.8264 5.23611 6.72918 4.04167C5.65973 4.63889 4.82293 5.46181 4.21876 6.51042C3.61459 7.55903 3.31251 8.69445 3.31251 9.91667C3.31251 11.7917 3.96876 13.3854 5.28126 14.6979C6.59376 16.0104 8.18751 16.6667 10.0625 16.6667Z" fill="#4A4A4A"/>
</svg>
